<svg xmlns="http://www.w3.org/2000/svg" xml:space="preserve" viewBox="0 0 512 512" id="process">
  <path fill="#22242f" fill-rule="evenodd" d="M437.381 245.392c11.443-3.374 21.7-9.594 29.94-17.835C480.08 214.798 488 197.206 488 177.861c0-19.344-7.92-36.937-20.679-49.696-12.759-12.759-30.351-20.679-49.696-20.679a8 8 0 0 1 0-16c23.761 0 45.357 9.715 61.008 25.366C494.285 132.504 504 154.1 504 177.861c0 23.761-9.715 45.357-25.366 61.009-10.52 10.52-23.727 18.359-38.471 22.367l3.848 2.222a7.981 7.981 0 0 1-8 13.812l-24.246-13.998a7.981 7.981 0 0 1-1.576-12.618l19.227-20.002a7.979 7.979 0 0 1 11.5 11.062l-3.535 3.677zM71.838 417.986c-14.745-4.008-27.951-11.847-38.472-22.367C17.715 379.967 8 358.371 8 334.61c0-23.761 9.715-45.357 25.366-61.008 15.651-15.651 37.247-25.366 61.008-25.366a8 8 0 0 1 0 16c-19.344 0-36.937 7.92-49.696 20.679C31.92 297.673 24 315.265 24 334.61s7.92 36.937 20.679 49.696c8.24 8.24 18.498 14.461 29.94 17.835l-3.535-3.678a7.978 7.978 0 0 1 .219-11.281 7.978 7.978 0 0 1 11.281.219l19.227 20.003a7.981 7.981 0 0 1-1.576 12.618L75.99 434.02a7.981 7.981 0 0 1-8-13.812l3.848-2.222z" clip-rule="evenodd" class="colora79ba7 svgShape"></path>
  <path fill="#f5f56c" fill-rule="evenodd" d="M130.218 42.397h239.159c5.508 0 10 4.492 10 10v83.259c0 5.508-4.492 10-10 10H130.218c-5.508 0-10-4.492-10-10v-83.26c0-5.507 4.492-9.999 10-9.999z" clip-rule="evenodd" class="color6cf5c2 svgShape"></path>
  <path fill="#527015" fill-rule="evenodd" d="M369.376 42.397c5.508 0 10 4.492 10 10v83.259c0 5.508-4.492 10-10 10H130.218c-5.508 0-10-4.492-10-10v-.001h239.159c5.508 0 10-4.492 10-10V42.397z" clip-rule="evenodd" class="color00e499 svgShape"></path>
  <path fill="#fffff0" fill-rule="evenodd" d="M155.682 85.901a8 8 0 0 1 0-16h183a8 8 0 0 1 0 16h-183zm0 32.25a8 8 0 0 1 0-16h183a8 8 0 0 1 0 16h-183z" clip-rule="evenodd" class="colorffffff svgShape"></path>
  <g fill-rule="evenodd" clip-rule="evenodd" fill="#1b3711" class="color000000 svgShape">
    <path fill="#ffdd77" d="M130.218 204.371h239.159c5.508 0 10 4.492 10 10v83.259c0 5.508-4.492 10-10 10H130.218c-5.508 0-10-4.492-10-10v-83.259c0-5.508 4.492-10 10-10z" class="colorffe177 svgShape"></path>
    <path fill="#ffc107" d="M369.376 204.371c5.508 0 10 4.492 10 10v83.259c0 5.508-4.492 10-10 10H130.218c-5.508 0-10-4.492-10-10v-.001h239.159c5.508 0 10-4.492 10-10v-83.258z" class="colorffd064 svgShape"></path>
    <path fill="#fffff0" d="M155.682 247.875a8 8 0 0 1 0-16h183a8 8 0 0 1 0 16h-183zm0 32.25a8 8 0 0 1 0-16h183a8 8 0 0 1 0 16h-183z" class="colorffffff svgShape"></path>
  </g>
  <g fill-rule="evenodd" clip-rule="evenodd" fill="#1b3711" class="color000000 svgShape">
    <path fill="#fefe8a" d="M130.218 366.345h239.159c5.508 0 10 4.492 10 10v83.259c0 5.508-4.492 10-10 10H130.218c-5.508 0-10-4.492-10-10v-83.259c0-5.508 4.492-10 10-10z" class="color8ac9fe svgShape"></path>
    <path fill="#ffff60" d="M369.376 366.345c5.508 0 10 4.492 10 10v83.259c0 5.508-4.492 10-10 10H130.218c-5.508 0-10-4.492-10-10h239.159c5.508 0 10-4.492 10-10v-83.259z" class="color60b7ff svgShape"></path>
    <path fill="#fffff0" d="M158.297 409.849a8 8 0 0 1 0-16h183a8 8 0 0 1 0 16h-183zm0 32.25a8 8 0 0 1 0-16h183a8 8 0 0 1 0 16h-183z" class="colorffffff svgShape"></path>
  </g>
</svg>
