<svg xmlns="http://www.w3.org/2000/svg" xml:space="preserve" id="salad" x="0" y="0" version="1.1" viewBox="0 0 512 512" enable-background="new 0 0 512 512">
  <g fill="#1b3711" class="color000000 svgShape">
    <g fill="#1b3711" class="color000000 svgShape">
      <path d="M321.1,195.2l-10.8,130.4L179.1,374L89.6,251.1c-1.3-3.5-1.6-7.4-1-11.1c1.1-7.3,4.9-13.8,8.2-20.4
			c3.3-6.6,6.4-13.7,5.8-21c-0.6-7.8-5.2-14.7-8.3-21.9c-3.1-7.2-4.4-16.4,0.7-22.3c4.1-4.6,10.9-5.8,15.7-9.6
			c8.9-7.1,8.3-20.5,9.8-31.8c2.2-16.5,11.7-32.7,26.9-39.4c15.2-6.7,35.8-1,42.6,14.2c2.8,6.3,3.1,13.3,4.4,20
			c1.3,6.7,3.9,13.8,9.7,17.5c13.9,8.8,33-7.6,48-0.8c14.4,6.5,13.3,28.1,24.2,39.6c5.2,5.5,12.6,8.1,19.7,10.6
			c7.1,2.4,14.5,5,19.7,10.5c2.6,2.7,4.5,6.5,5.1,10.2L321.1,195.2z" fill="#527015" class="color8dc640 svgShape"></path>
      <g fill="#1b3711" class="color000000 svgShape">
        <path d="M244.5,349.9l-11.8,4.3c-21-40.1-41.2-81.3-60.1-122.5c-9.2-20.1-18.4-43.4-10.7-65.3
				c1.1-3.2,4.7-4.9,7.9-3.8c3.2,1.1,4.9,4.7,3.8,7.9c-6.2,17.5,1.7,37.3,10.3,56c18.9,41.3,39.2,82.7,60.3,123
				C244.4,349.6,244.5,349.8,244.5,349.9z" fill="#fffff0" class="colorf2f2f3 svgShape"></path>
      </g>
    </g>
    <circle cx="380" cy="228" r="58.2" fill="#ffc107" class="colorfbb03a svgShape"></circle>
    <circle cx="313.8" cy="296.6" r="58.2" fill="#ecb920" class="colorec2027 svgShape"></circle>
    <circle cx="430.2" cy="296.6" r="58.2" fill="#ecb920" class="colorec2027 svgShape"></circle>
    <g fill="#1b3711" class="color000000 svgShape">
      <path d="M263,325.4c-29.5,48.4-102.1,60.8-165.2,27.3s-93.7-100.5-70.2-152L263,325.4z" fill="#fffff0" class="colorf2f2f3 svgShape"></path>
      <path d="M191.9,287.7c-13.6,25.7-45.5,35.5-71.2,21.9s-35.5-45.5-21.9-71.2L191.9,287.7z" fill="#ffc107" class="colorfbb03a svgShape"></path>
    </g>
    <path d="M416.9,413.9H95.1c-43.9,0-79.5-35.6-79.5-79.5v0c0-7,5.7-12.7,12.7-12.7h455.3c7,0,12.7,5.7,12.7,12.7v0
		C496.4,378.3,460.8,413.9,416.9,413.9z" fill="#a5e229" class="color29aae2 svgShape"></path>
    <path d="M404.7,441.1H107.3c-5.7,0-10.3-4.6-10.3-10.3v-17H415v17C415,436.5,410.4,441.1,404.7,441.1z" fill="#22242f" class="color191919 svgShape"></path>
  </g>
</svg>
