<svg xmlns="http://www.w3.org/2000/svg" viewBox="0 0 64 64" id="StickyNotes">
  <path fill="#527015" fill-rule="evenodd" d="M48.02,8.31c-.15,0-.31,.03-.46,.08l-11.19,3-4.61,10.91,11.42,26.19,14.11-3.78c1.23-.33,1.96-1.59,1.63-2.82l-8.54-31.87c-.29-1.08-1.29-1.77-2.36-1.7Z" class="colore2eef2 svgShape"></path>
  <polygon fill="#22242f" fill-rule="evenodd" points="36.73 13.31 33.82 18.92 43.19 48.48 47.35 47.37 53.87 23.03 52.39 17.51 40.58 14.35 36.73 13.31" class="colord7e5eb svgShape"></polygon>
  <path fill="#22242f" fill-rule="evenodd" d="M48.02,8.31c-.15,0-.31,.03-.46,.08l-3.66,.98c1.23-.32,2.48,.4,2.81,1.63l8.54,31.87c.33,1.23-.4,2.49-1.63,2.82l3.67-.98c1.23-.33,1.96-1.59,1.63-2.82l-8.54-31.87c-.29-1.08-1.29-1.77-2.36-1.7Z" class="colord7e5eb svgShape"></path>
  <path fill="#fffff0" fill-rule="evenodd" d="M15.98,10.6c-1.07-.07-2.07,.62-2.36,1.7L5.08,44.17c-.33,1.23,.4,2.49,1.63,2.82l32.18,8.62c1.23,.33,2.49-.4,2.82-1.63l8.54-31.87c.33-1.23-.4-2.49-1.63-2.82l-12.34-3.31-9.2-2.46-10.64-2.85c-.15-.04-.31-.07-.46-.08Z" class="colorf0f4f6 svgShape"></path>
  <path fill="#527015" fill-rule="evenodd" d="M45.2,18.38c1.23,.33,1.96,1.59,1.63,2.82l-8.54,31.87c-.33,1.23-1.59,1.96-2.82,1.63l3.42,.92c1.23,.33,2.49-.4,2.82-1.63l8.54-31.87c.33-1.23-.4-2.49-1.63-2.82l-3.43-.92Z" class="colore2eef2 svgShape"></path>
  <circle cx="32" cy="13.65" r="4.94" fill="#ffc107" class="color9dacb9 svgShape"></circle>
  <path d="M38.63,56.58c.28,.08,.57,.11,.85,.11,1.46,0,2.8-.97,3.19-2.45l1.33-4.95,13.55-3.63c.85-.23,1.57-.77,2.01-1.54,.44-.76,.56-1.65,.33-2.51l-8.54-31.87c-.47-1.76-2.28-2.8-4.04-2.34l-10.57,2.83c-1.08-1.49-2.75-2.53-4.73-2.53-2.79,0-5.03,1.97-5.66,4.57l-9.64-2.58c-.85-.23-1.74-.11-2.51,.33-.76,.44-1.31,1.15-1.54,2.01L4.11,43.91c-.47,1.76,.58,3.57,2.33,4.04l32.18,8.62ZM47.82,9.35c.69-.18,1.41,.23,1.59,.92l8.54,31.87c.09,.34,.04,.69-.13,.99-.17,.3-.45,.52-.79,.61l-12.44,3.33,6.62-24.69c.23-.85,.11-1.74-.33-2.51s-1.15-1.31-2.01-1.54l-11.28-3.02c.16-.54,.34-1.07,.34-1.66s-.17-1.06-.32-1.57l10.2-2.73Zm-15.82,.37c2.17,0,3.94,1.77,3.94,3.94s-1.77,3.94-3.94,3.94-3.94-1.77-3.94-3.94,1.77-3.94,3.94-3.94ZM6.05,44.43L14.59,12.56c.09-.34,.31-.62,.61-.79,.3-.17,.65-.22,.99-.13l10.02,2.68c.35,2.94,2.77,5.27,5.8,5.27,1.95,0,3.6-1.01,4.68-2.46l11.68,3.13c.34,.09,.62,.31,.79,.61,.17,.3,.22,.65,.13,.99l-8.54,31.87c-.19,.69-.9,1.11-1.59,.92L6.97,46.03c-.69-.19-1.11-.9-.92-1.59Z" fill="#1b3711" class="color000000 svgShape"></path>
  <path d="M31.95 25.28l2.71.73c.09.02.17.03.26.03.44 0 .85-.29.97-.74.14-.53-.17-1.08-.71-1.22l-2.71-.73c-.54-.15-1.08.17-1.22.71-.14.53.17 1.08.71 1.22zM16.25 21.07l5.25 1.41c.09.02.17.03.26.03.44 0 .85-.29.97-.74.14-.53-.17-1.08-.71-1.22l-5.25-1.41c-.53-.14-1.08.17-1.22.71-.14.53.17 1.08.71 1.22zM25.91 23.66l2.71.73c.09.02.17.03.26.03.44 0 .85-.29.97-.74.14-.53-.17-1.08-.71-1.22l-2.71-.73c-.54-.15-1.08.17-1.22.71-.14.53.17 1.08.71 1.22zM31.86 34.67l4.47 1.2c.09.02.17.03.26.03.44 0 .85-.29.97-.74.14-.53-.17-1.08-.71-1.22l-4.47-1.2c-.54-.14-1.08.17-1.22.71-.14.53.17 1.08.71 1.22zM13.9 29.86l14.14 3.79c.09.02.17.03.26.03.44 0 .85-.29.97-.74.14-.53-.17-1.08-.71-1.22l-14.14-3.79c-.53-.15-1.08.17-1.22.71-.14.53.17 1.08.71 1.22zM30.67 39.02c.09.02.17.03.26.03.44 0 .85-.29.97-.74.14-.53-.17-1.08-.71-1.22l-6.77-1.81c-.54-.15-1.08.17-1.22.71-.14.53.17 1.08.71 1.22l6.77 1.81zM12.73 34.21l7.52 2.02c.09.02.17.03.26.03.44 0 .85-.29.97-.74.14-.53-.17-1.08-.71-1.22l-7.52-2.02c-.53-.14-1.08.17-1.22.71-.14.53.17 1.08.71 1.22zM34.52 42.65l-12.89-3.45c-.54-.14-1.08.17-1.22.71-.14.53.17 1.08.71 1.22l12.89 3.45c.09.02.17.03.26.03.44 0 .85-.29.97-.74.14-.53-.17-1.08-.71-1.22zM11.56 38.57l5.34 1.43c.09.02.17.03.26.03.44 0 .85-.29.97-.74.14-.53-.17-1.08-.71-1.22l-5.34-1.43c-.54-.14-1.08.17-1.22.71-.14.53.17 1.08.71 1.22zM10.4 42.92l9.33 2.5c.09.02.17.03.26.03.44 0 .85-.29.97-.74.14-.53-.17-1.08-.71-1.22l-9.33-2.5c-.53-.15-1.08.17-1.22.71s.17 1.08.71 1.22zM29.99 46.1l-5.55-1.49c-.54-.15-1.08.17-1.22.71-.14.53.17 1.08.71 1.22l5.55 1.49c.09.02.17.03.26.03.44 0 .85-.29.97-.74.14-.53-.17-1.08-.71-1.22z" fill="#1b3711" class="color000000 svgShape"></path>
</svg>
